{
 "cells": [
  {
   "cell_type": "markdown",
   "metadata": {},
   "source": [
    "# Mask R-CNN Demo\n",
    "\n",
    "A quick intro to using the pre-trained model to detect and segment objects."
   ]
  },
  {
   "cell_type": "code",
   "execution_count": 38,
   "metadata": {},
   "outputs": [],
   "source": [
    "import os\n",
    "import sys\n",
    "import random\n",
    "import math\n",
    "import numpy as np\n",
    "import skimage.io\n",
    "import matplotlib\n",
    "import matplotlib.pyplot as plt\n",
    "import random\n",
    "import itertools\n",
    "import colorsys\n",
    "from PIL import Image, ImageDraw, ImageFont\n",
    "import matplotlib.font_manager as fm\n",
    "from pytube import YouTube\n",
    "import glob\n",
    "# Root directory of the project\n",
    "ROOT_DIR = os.path.abspath(\"../\")\n",
    "\n",
    "# Import Mask RCNN\n",
    "sys.path.append(ROOT_DIR)  # To find local version of the library\n",
    "from mrcnn import utils\n",
    "import mrcnn.model as modellib\n",
    "from mrcnn import visualize\n",
    "# Import COCO config\n",
    "sys.path.append(os.path.join(ROOT_DIR, \"samples/coco/\"))  # To find local version\n",
    "import coco\n",
    "\n",
    "%matplotlib inline \n",
    "\n",
    "# Directory to save logs and trained model\n",
    "MODEL_DIR = os.path.join(ROOT_DIR, \"logs\")\n",
    "\n",
    "# Local path to trained weights file\n",
    "COCO_MODEL_PATH = os.path.join(ROOT_DIR, \"mask_rcnn_coco.h5\")\n",
    "# Download COCO trained weights from Releases if needed\n",
    "if not os.path.exists(COCO_MODEL_PATH):\n",
    "    utils.download_trained_weights(COCO_MODEL_PATH)\n",
    "\n",
    "# Directory of images to run detection on\n",
    "IMAGE_DIR = os.path.join(ROOT_DIR, \"images\")"
   ]
  },
  {
   "cell_type": "markdown",
   "metadata": {},
   "source": [
    "## Configurations\n",
    "\n",
    "We'll be using a model trained on the MS-COCO dataset. The configurations of this model are in the ```CocoConfig``` class in ```coco.py```.\n",
    "\n",
    "For inferencing, modify the configurations a bit to fit the task. To do so, sub-class the ```CocoConfig``` class and override the attributes you need to change."
   ]
  },
  {
   "cell_type": "code",
   "execution_count": 25,
   "metadata": {},
   "outputs": [
    {
     "name": "stdout",
     "output_type": "stream",
     "text": [
      "\n",
      "Configurations:\n",
      "BACKBONE                       resnet101\n",
      "BACKBONE_STRIDES               [4, 8, 16, 32, 64]\n",
      "BATCH_SIZE                     1\n",
      "BBOX_STD_DEV                   [0.1 0.1 0.2 0.2]\n",
      "COMPUTE_BACKBONE_SHAPE         None\n",
      "DETECTION_MAX_INSTANCES        100\n",
      "DETECTION_MIN_CONFIDENCE       0.7\n",
      "DETECTION_NMS_THRESHOLD        0.3\n",
      "FPN_CLASSIF_FC_LAYERS_SIZE     1024\n",
      "GPU_COUNT                      1\n",
      "GRADIENT_CLIP_NORM             5.0\n",
      "IMAGES_PER_GPU                 1\n",
      "IMAGE_CHANNEL_COUNT            3\n",
      "IMAGE_MAX_DIM                  1024\n",
      "IMAGE_META_SIZE                93\n",
      "IMAGE_MIN_DIM                  800\n",
      "IMAGE_MIN_SCALE                0\n",
      "IMAGE_RESIZE_MODE              square\n",
      "IMAGE_SHAPE                    [1024 1024    3]\n",
      "LEARNING_MOMENTUM              0.9\n",
      "LEARNING_RATE                  0.001\n",
      "LOSS_WEIGHTS                   {'rpn_class_loss': 1.0, 'rpn_bbox_loss': 1.0, 'mrcnn_class_loss': 1.0, 'mrcnn_bbox_loss': 1.0, 'mrcnn_mask_loss': 1.0}\n",
      "MASK_POOL_SIZE                 14\n",
      "MASK_SHAPE                     [28, 28]\n",
      "MAX_GT_INSTANCES               100\n",
      "MEAN_PIXEL                     [123.7 116.8 103.9]\n",
      "MINI_MASK_SHAPE                (56, 56)\n",
      "NAME                           coco\n",
      "NUM_CLASSES                    81\n",
      "POOL_SIZE                      7\n",
      "POST_NMS_ROIS_INFERENCE        1000\n",
      "POST_NMS_ROIS_TRAINING         2000\n",
      "PRE_NMS_LIMIT                  6000\n",
      "ROI_POSITIVE_RATIO             0.33\n",
      "RPN_ANCHOR_RATIOS              [0.5, 1, 2]\n",
      "RPN_ANCHOR_SCALES              (32, 64, 128, 256, 512)\n",
      "RPN_ANCHOR_STRIDE              1\n",
      "RPN_BBOX_STD_DEV               [0.1 0.1 0.2 0.2]\n",
      "RPN_NMS_THRESHOLD              0.7\n",
      "RPN_TRAIN_ANCHORS_PER_IMAGE    256\n",
      "STEPS_PER_EPOCH                1000\n",
      "TOP_DOWN_PYRAMID_SIZE          256\n",
      "TRAIN_BN                       False\n",
      "TRAIN_ROIS_PER_IMAGE           200\n",
      "USE_MINI_MASK                  True\n",
      "USE_RPN_ROIS                   True\n",
      "VALIDATION_STEPS               50\n",
      "WEIGHT_DECAY                   0.0001\n",
      "\n",
      "\n"
     ]
    }
   ],
   "source": [
    "class InferenceConfig(coco.CocoConfig):\n",
    "    # Set batch size to 1 since we'll be running inference on\n",
    "    # one image at a time. Batch size = GPU_COUNT * IMAGES_PER_GPU\n",
    "    GPU_COUNT = 1\n",
    "    IMAGES_PER_GPU = 1\n",
    "\n",
    "config = InferenceConfig()\n",
    "config.display()"
   ]
  },
  {
   "cell_type": "markdown",
   "metadata": {},
   "source": [
    "## Create Model and Load Trained Weights"
   ]
  },
  {
   "cell_type": "code",
   "execution_count": 26,
   "metadata": {
    "scrolled": false
   },
   "outputs": [],
   "source": [
    "# Create model object in inference mode.\n",
    "model = modellib.MaskRCNN(mode=\"inference\", model_dir=MODEL_DIR, config=config)\n",
    "\n",
    "# Load weights trained on MS-COCO\n",
    "model.load_weights(COCO_MODEL_PATH, by_name=True)"
   ]
  },
  {
   "cell_type": "markdown",
   "metadata": {},
   "source": [
    "## Class Names\n",
    "\n",
    "The model classifies objects and returns class IDs, which are integer value that identify each class. Some datasets assign integer values to their classes and some don't. For example, in the MS-COCO dataset, the 'person' class is 1 and 'teddy bear' is 88. The IDs are often sequential, but not always. The COCO dataset, for example, has classes associated with class IDs 70 and 72, but not 71.\n",
    "\n",
    "To improve consistency, and to support training on data from multiple sources at the same time, our ```Dataset``` class assigns it's own sequential integer IDs to each class. For example, if you load the COCO dataset using our ```Dataset``` class, the 'person' class would get class ID = 1 (just like COCO) and the 'teddy bear' class is 78 (different from COCO). Keep that in mind when mapping class IDs to class names.\n",
    "\n",
    "To get the list of class names, you'd load the dataset and then use the ```class_names``` property like this.\n",
    "```\n",
    "# Load COCO dataset\n",
    "dataset = coco.CocoDataset()\n",
    "dataset.load_coco(COCO_DIR, \"train\")\n",
    "dataset.prepare()\n",
    "\n",
    "# Print class names\n",
    "print(dataset.class_names)\n",
    "```\n",
    "\n",
    "We don't want to require you to download the COCO dataset just to run this demo, so we're including the list of class names below. The index of the class name in the list represent its ID (first class is 0, second is 1, third is 2, ...etc.)"
   ]
  },
  {
   "cell_type": "code",
   "execution_count": 27,
   "metadata": {},
   "outputs": [],
   "source": [
    "# COCO Class names\n",
    "# Index of the class in the list is its ID. For example, to get ID of\n",
    "# the teddy bear class, use: class_names.index('teddy bear')\n",
    "class_names = ['BG', 'person', 'bicycle', 'car', 'motorcycle', 'airplane',\n",
    "               'bus', 'train', 'truck', 'boat', 'traffic light',\n",
    "               'fire hydrant', 'stop sign', 'parking meter', 'bench', 'bird',\n",
    "               'cat', 'dog', 'horse', 'sheep', 'cow', 'elephant', 'bear',\n",
    "               'zebra', 'giraffe', 'backpack', 'umbrella', 'handbag', 'tie',\n",
    "               'suitcase', 'frisbee', 'skis', 'snowboard', 'sports ball',\n",
    "               'kite', 'baseball bat', 'baseball glove', 'skateboard',\n",
    "               'surfboard', 'tennis racket', 'bottle', 'wine glass', 'cup',\n",
    "               'fork', 'knife', 'spoon', 'bowl', 'banana', 'apple',\n",
    "               'sandwich', 'orange', 'broccoli', 'carrot', 'hot dog', 'pizza',\n",
    "               'donut', 'cake', 'chair', 'couch', 'potted plant', 'bed',\n",
    "               'dining table', 'toilet', 'tv', 'laptop', 'mouse', 'remote',\n",
    "               'keyboard', 'cell phone', 'microwave', 'oven', 'toaster',\n",
    "               'sink', 'refrigerator', 'book', 'clock', 'vase', 'scissors',\n",
    "               'teddy bear', 'hair drier', 'toothbrush']"
   ]
  },
  {
   "cell_type": "code",
   "execution_count": 28,
   "metadata": {},
   "outputs": [],
   "source": [
    "def apply_mask(image, mask, color, alpha=0.5):\n",
    "    \"\"\"Apply the given mask to the image.\n",
    "    \"\"\"\n",
    "    for c in range(3):\n",
    "        image[:, :, c] = np.where(mask == 1,\n",
    "                                  image[:, :, c] *\n",
    "                                  (1 - alpha) + alpha * color[c] * 255,\n",
    "                                  image[:, :, c])\n",
    "    return image\n"
   ]
  },
  {
   "cell_type": "code",
   "execution_count": 29,
   "metadata": {},
   "outputs": [],
   "source": [
    "def random_colors(N, bright=True):\n",
    "    \"\"\"\n",
    "    Generate random colors.\n",
    "    To get visually distinct colors, generate them in HSV space then\n",
    "    convert to RGB.\n",
    "    \"\"\"\n",
    "    brightness = 1.0 if bright else 0.7\n",
    "    hsv = [(i / N, 1, brightness) for i in range(N)]\n",
    "    colors = list(map(lambda c: colorsys.hsv_to_rgb(*c), hsv))\n",
    "    random.shuffle(colors)\n",
    "    return colors\n"
   ]
  },
  {
   "cell_type": "code",
   "execution_count": 35,
   "metadata": {},
   "outputs": [],
   "source": [
    "def save_image(image, image_name, boxes, masks, class_ids, scores, class_names, filter_classs_names=None,\n",
    "               scores_thresh=0.1, save_dir=None, mode=0):\n",
    "    \"\"\"\n",
    "        image: image array\n",
    "        image_name: image name\n",
    "        boxes: [num_instance, (y1, x1, y2, x2, class_id)] in image coordinates.\n",
    "        masks: [num_instances, height, width]\n",
    "        class_ids: [num_instances]\n",
    "        scores: confidence scores for each box\n",
    "        class_names: list of class names of the dataset\n",
    "        filter_classs_names: (optional) list of class names we want to draw\n",
    "        scores_thresh: (optional) threshold of confidence scores\n",
    "        save_dir: (optional) the path to store image\n",
    "        mode: (optional) select the result which you want\n",
    "                mode = 0 , save image with bbox,class_name,score and mask;\n",
    "                mode = 1 , save image with bbox,class_name and score;\n",
    "                mode = 2 , save image with class_name,score and mask;\n",
    "                mode = 3 , save mask with black background;\n",
    "    \"\"\"\n",
    "    mode_list = [0, 1, 2, 3]\n",
    "    assert mode in mode_list, \"mode's value should in mode_list %s\" % str(mode_list)\n",
    "\n",
    "    if save_dir is None:\n",
    "        save_dir = os.path.join(os.getcwd(), \"output\")\n",
    "        if not os.path.exists(save_dir):\n",
    "            os.makedirs(save_dir)\n",
    "\n",
    "    useful_mask_indices = []\n",
    "\n",
    "    N = boxes.shape[0]\n",
    "    if not N:\n",
    "        print(\"\\n*** No instances in image %s to draw *** \\n\" % (image_name))\n",
    "        return\n",
    "    else:\n",
    "        assert boxes.shape[0] == masks.shape[-1] == class_ids.shape[0]\n",
    "\n",
    "    for i in range(N):\n",
    "        # filter\n",
    "        class_id = class_ids[i]\n",
    "        score = scores[i] if scores is not None else None\n",
    "        if score is None or score < scores_thresh:\n",
    "            continue\n",
    "\n",
    "        label = class_names[class_id]\n",
    "        if (filter_classs_names is not None) and (label not in filter_classs_names):\n",
    "            continue\n",
    "\n",
    "        if not np.any(boxes[i]):\n",
    "            # Skip this instance. Has no bbox. Likely lost in image cropping.\n",
    "            continue\n",
    "\n",
    "        useful_mask_indices.append(i)\n",
    "\n",
    "    if len(useful_mask_indices) == 0:\n",
    "        print(\"\\n*** No instances in image %s to draw *** \\n\" % (image_name))\n",
    "        return\n",
    "\n",
    "    colors = random_colors(len(useful_mask_indices))\n",
    "\n",
    "    if mode != 3:\n",
    "        masked_image = image.astype(np.uint8).copy()\n",
    "    else:\n",
    "        masked_image = np.zeros(image.shape).astype(np.uint8)\n",
    "\n",
    "    if mode != 1:\n",
    "        for index, value in enumerate(useful_mask_indices):\n",
    "            masked_image = apply_mask(masked_image, masks[:, :, value], colors[index])\n",
    "\n",
    "    masked_image = Image.fromarray(masked_image)\n",
    "\n",
    "    if mode == 3:\n",
    "        masked_image.save(os.path.join(save_dir, '%s.jpg' % (image_name)))\n",
    "        return\n",
    "\n",
    "    draw = ImageDraw.Draw(masked_image)\n",
    "    colors = np.array(colors).astype(int) * 255\n",
    "\n",
    "    for index, value in enumerate(useful_mask_indices):\n",
    "        class_id = class_ids[value]\n",
    "        score = scores[value]\n",
    "        label = class_names[class_id]\n",
    "\n",
    "        y1, x1, y2, x2 = boxes[value]\n",
    "        if mode != 2:\n",
    "            color = tuple(colors[index])\n",
    "            draw.rectangle((x1, y1, x2, y2), outline=color)\n",
    "\n",
    "        # Label\n",
    "        font = ImageFont.truetype(\"/usr/share/fonts/truetype/dejavu/DejaVuSans-Bold.ttf\", 15)\n",
    "        draw.text((x1, y1), \"%s %f\" % (label, score), (0, 0, 0), font)\n",
    "        #draw.text((x1, y1), \"%s %f\" % (label, score), (255, 255, 255))\n",
    "\n",
    "    masked_image.save(os.path.join(save_dir, '%s.jpg' % (image_name)))"
   ]
  },
  {
   "cell_type": "markdown",
   "metadata": {},
   "source": [
    "## Run Object Detection"
   ]
  },
  {
   "cell_type": "code",
   "execution_count": 36,
   "metadata": {},
   "outputs": [
    {
     "data": {
      "text/plain": [
       "'/userhome/comp3314/c3314g15/MaskRCNN-Extension/samples/video.mp4'"
      ]
     },
     "execution_count": 36,
     "metadata": {},
     "output_type": "execute_result"
    }
   ],
   "source": [
    "YouTube('https://www.youtube.com/watch?v=_c1XNARpi0I').streams.first().download(filename='video')"
   ]
  },
  {
   "cell_type": "code",
   "execution_count": 42,
   "metadata": {},
   "outputs": [
    {
     "name": "stdout",
     "output_type": "stream",
     "text": [
      "ffmpeg version 3.4.4-0ubuntu0.18.04.1 Copyright (c) 2000-2018 the FFmpeg developers\n",
      "  built with gcc 7 (Ubuntu 7.3.0-16ubuntu3)\n",
      "  configuration: --prefix=/usr --extra-version=0ubuntu0.18.04.1 --toolchain=hardened --libdir=/usr/lib/x86_64-linux-gnu --incdir=/usr/include/x86_64-linux-gnu --enable-gpl --disable-stripping --enable-avresample --enable-avisynth --enable-gnutls --enable-ladspa --enable-libass --enable-libbluray --enable-libbs2b --enable-libcaca --enable-libcdio --enable-libflite --enable-libfontconfig --enable-libfreetype --enable-libfribidi --enable-libgme --enable-libgsm --enable-libmp3lame --enable-libmysofa --enable-libopenjpeg --enable-libopenmpt --enable-libopus --enable-libpulse --enable-librubberband --enable-librsvg --enable-libshine --enable-libsnappy --enable-libsoxr --enable-libspeex --enable-libssh --enable-libtheora --enable-libtwolame --enable-libvorbis --enable-libvpx --enable-libwavpack --enable-libwebp --enable-libx265 --enable-libxml2 --enable-libxvid --enable-libzmq --enable-libzvbi --enable-omx --enable-openal --enable-opengl --enable-sdl2 --enable-libdc1394 --enable-libdrm --enable-libiec61883 --enable-chromaprint --enable-frei0r --enable-libopencv --enable-libx264 --enable-shared\n",
      "  libavutil      55. 78.100 / 55. 78.100\n",
      "  libavcodec     57.107.100 / 57.107.100\n",
      "  libavformat    57. 83.100 / 57. 83.100\n",
      "  libavdevice    57. 10.100 / 57. 10.100\n",
      "  libavfilter     6.107.100 /  6.107.100\n",
      "  libavresample   3.  7.  0 /  3.  7.  0\n",
      "  libswscale      4.  8.100 /  4.  8.100\n",
      "  libswresample   2.  9.100 /  2.  9.100\n",
      "  libpostproc    54.  7.100 / 54.  7.100\n",
      "Input #0, mov,mp4,m4a,3gp,3g2,mj2, from 'video.mp4':\n",
      "  Metadata:\n",
      "    major_brand     : mp42\n",
      "    minor_version   : 0\n",
      "    compatible_brands: isommp42\n",
      "    creation_time   : 2019-03-30T12:22:46.000000Z\n",
      "  Duration: 00:02:03.04, start: 0.000000, bitrate: 356 kb/s\n",
      "    Stream #0:0(und): Video: h264 (Main) (avc1 / 0x31637661), yuv420p(tv, bt709), 1280x720 [SAR 1:1 DAR 16:9], 256 kb/s, 29.97 fps, 29.97 tbr, 30k tbn, 59.94 tbc (default)\n",
      "    Metadata:\n",
      "      creation_time   : 2019-03-30T12:22:46.000000Z\n",
      "      handler_name    : ISO Media file produced by Google Inc. Created on: 03/30/2019.\n",
      "    Stream #0:1(und): Audio: aac (LC) (mp4a / 0x6134706D), 44100 Hz, mono, fltp, 96 kb/s (default)\n",
      "    Metadata:\n",
      "      creation_time   : 2019-03-30T12:22:46.000000Z\n",
      "      handler_name    : ISO Media file produced by Google Inc. Created on: 03/30/2019.\n",
      "Stream mapping:\n",
      "  Stream #0:0 -> #0:0 (h264 (native) -> mjpeg (native))\n",
      "Press [q] to stop, [?] for help\n",
      "\u001b[1;34m[swscaler @ 0x5579431a9380] \u001b[0m\u001b[0;33mdeprecated pixel format used, make sure you did set range correctly\n",
      "\u001b[0mOutput #0, image2, to 'img/output%04d.jpg':\n",
      "  Metadata:\n",
      "    major_brand     : mp42\n",
      "    minor_version   : 0\n",
      "    compatible_brands: isommp42\n",
      "    encoder         : Lavf57.83.100\n",
      "    Stream #0:0(und): Video: mjpeg, yuvj420p(pc), 1280x720 [SAR 1:1 DAR 16:9], q=2-31, 200 kb/s, 30 fps, 30 tbn, 30 tbc (default)\n",
      "    Metadata:\n",
      "      creation_time   : 2019-03-30T12:22:46.000000Z\n",
      "      handler_name    : ISO Media file produced by Google Inc. Created on: 03/30/2019.\n",
      "      encoder         : Lavc57.107.100 mjpeg\n",
      "    Side data:\n",
      "      cpb: bitrate max/min/avg: 0/0/200000 buffer size: 0 vbv_delay: -1\n",
      "frame= 3691 fps= 78 q=24.8 Lsize=N/A time=00:02:03.03 bitrate=N/A speed=2.58x    \n",
      "video:103755kB audio:0kB subtitle:0kB other streams:0kB global headers:0kB muxing overhead: unknown\n"
     ]
    }
   ],
   "source": [
    "!ffmpeg -i video.mp4 -vf fps=30 img/output%04d.jpg"
   ]
  },
  {
   "cell_type": "code",
   "execution_count": 43,
   "metadata": {},
   "outputs": [
    {
     "name": "stdout",
     "output_type": "stream",
     "text": [
      "\n",
      "*** No instances in image image_0003 to draw *** \n",
      "\n",
      "\n",
      "*** No instances in image image_0007 to draw *** \n",
      "\n",
      "\n",
      "*** No instances in image image_0017 to draw *** \n",
      "\n",
      "\n",
      "*** No instances in image image_0054 to draw *** \n",
      "\n",
      "\n",
      "*** No instances in image image_0083 to draw *** \n",
      "\n",
      "\n",
      "*** No instances in image image_0093 to draw *** \n",
      "\n",
      "\n",
      "*** No instances in image image_0101 to draw *** \n",
      "\n",
      "\n",
      "*** No instances in image image_0107 to draw *** \n",
      "\n",
      "\n",
      "*** No instances in image image_0132 to draw *** \n",
      "\n",
      "\n",
      "*** No instances in image image_0134 to draw *** \n",
      "\n",
      "\n",
      "*** No instances in image image_0153 to draw *** \n",
      "\n",
      "\n",
      "*** No instances in image image_0155 to draw *** \n",
      "\n",
      "\n",
      "*** No instances in image image_0160 to draw *** \n",
      "\n",
      "\n",
      "*** No instances in image image_0167 to draw *** \n",
      "\n",
      "\n",
      "*** No instances in image image_0168 to draw *** \n",
      "\n",
      "\n",
      "*** No instances in image image_0182 to draw *** \n",
      "\n",
      "\n",
      "*** No instances in image image_0194 to draw *** \n",
      "\n",
      "\n",
      "*** No instances in image image_0195 to draw *** \n",
      "\n",
      "\n",
      "*** No instances in image image_0200 to draw *** \n",
      "\n",
      "\n",
      "*** No instances in image image_0221 to draw *** \n",
      "\n",
      "\n",
      "*** No instances in image image_0225 to draw *** \n",
      "\n",
      "\n",
      "*** No instances in image image_0238 to draw *** \n",
      "\n",
      "\n",
      "*** No instances in image image_0252 to draw *** \n",
      "\n",
      "\n",
      "*** No instances in image image_0260 to draw *** \n",
      "\n",
      "\n",
      "*** No instances in image image_0276 to draw *** \n",
      "\n",
      "\n",
      "*** No instances in image image_0286 to draw *** \n",
      "\n",
      "\n",
      "*** No instances in image image_0288 to draw *** \n",
      "\n",
      "\n",
      "*** No instances in image image_0302 to draw *** \n",
      "\n",
      "\n",
      "*** No instances in image image_0306 to draw *** \n",
      "\n",
      "\n",
      "*** No instances in image image_0317 to draw *** \n",
      "\n",
      "\n",
      "*** No instances in image image_0319 to draw *** \n",
      "\n",
      "\n",
      "*** No instances in image image_0330 to draw *** \n",
      "\n",
      "\n",
      "*** No instances in image image_0333 to draw *** \n",
      "\n",
      "\n",
      "*** No instances in image image_0348 to draw *** \n",
      "\n",
      "\n",
      "*** No instances in image image_0350 to draw *** \n",
      "\n",
      "\n",
      "*** No instances in image image_0370 to draw *** \n",
      "\n",
      "\n",
      "*** No instances in image image_0386 to draw *** \n",
      "\n",
      "\n",
      "*** No instances in image image_0392 to draw *** \n",
      "\n",
      "\n",
      "*** No instances in image image_0393 to draw *** \n",
      "\n",
      "\n",
      "*** No instances in image image_0401 to draw *** \n",
      "\n",
      "\n",
      "*** No instances in image image_0405 to draw *** \n",
      "\n",
      "\n",
      "*** No instances in image image_0411 to draw *** \n",
      "\n",
      "\n",
      "*** No instances in image image_0413 to draw *** \n",
      "\n",
      "\n",
      "*** No instances in image image_0420 to draw *** \n",
      "\n",
      "\n",
      "*** No instances in image image_0421 to draw *** \n",
      "\n",
      "\n",
      "*** No instances in image image_0432 to draw *** \n",
      "\n",
      "\n",
      "*** No instances in image image_0455 to draw *** \n",
      "\n",
      "\n",
      "*** No instances in image image_0464 to draw *** \n",
      "\n",
      "\n",
      "*** No instances in image image_0466 to draw *** \n",
      "\n",
      "\n",
      "*** No instances in image image_0476 to draw *** \n",
      "\n",
      "\n",
      "*** No instances in image image_0485 to draw *** \n",
      "\n",
      "\n",
      "*** No instances in image image_0486 to draw *** \n",
      "\n",
      "\n",
      "*** No instances in image image_0492 to draw *** \n",
      "\n",
      "\n",
      "*** No instances in image image_0497 to draw *** \n",
      "\n",
      "\n",
      "*** No instances in image image_0498 to draw *** \n",
      "\n",
      "\n",
      "*** No instances in image image_0507 to draw *** \n",
      "\n",
      "\n",
      "*** No instances in image image_0536 to draw *** \n",
      "\n",
      "\n",
      "*** No instances in image image_0549 to draw *** \n",
      "\n",
      "\n",
      "*** No instances in image image_0557 to draw *** \n",
      "\n",
      "\n",
      "*** No instances in image image_0565 to draw *** \n",
      "\n",
      "\n",
      "*** No instances in image image_0569 to draw *** \n",
      "\n",
      "\n",
      "*** No instances in image image_0570 to draw *** \n",
      "\n",
      "\n",
      "*** No instances in image image_0578 to draw *** \n",
      "\n",
      "\n",
      "*** No instances in image image_0580 to draw *** \n",
      "\n",
      "\n",
      "*** No instances in image image_0588 to draw *** \n",
      "\n",
      "\n",
      "*** No instances in image image_0599 to draw *** \n",
      "\n",
      "\n",
      "*** No instances in image image_0608 to draw *** \n",
      "\n",
      "\n",
      "*** No instances in image image_0611 to draw *** \n",
      "\n",
      "\n",
      "*** No instances in image image_0621 to draw *** \n",
      "\n",
      "\n",
      "*** No instances in image image_0625 to draw *** \n",
      "\n",
      "\n",
      "*** No instances in image image_0631 to draw *** \n",
      "\n",
      "\n",
      "*** No instances in image image_0641 to draw *** \n",
      "\n",
      "\n",
      "*** No instances in image image_0652 to draw *** \n",
      "\n",
      "\n",
      "*** No instances in image image_0654 to draw *** \n",
      "\n",
      "\n",
      "*** No instances in image image_0661 to draw *** \n",
      "\n",
      "\n",
      "*** No instances in image image_0662 to draw *** \n",
      "\n",
      "\n",
      "*** No instances in image image_0665 to draw *** \n",
      "\n",
      "\n",
      "*** No instances in image image_0667 to draw *** \n",
      "\n",
      "\n",
      "*** No instances in image image_0678 to draw *** \n",
      "\n",
      "\n",
      "*** No instances in image image_0689 to draw *** \n",
      "\n",
      "\n",
      "*** No instances in image image_0696 to draw *** \n",
      "\n",
      "\n",
      "*** No instances in image image_0702 to draw *** \n",
      "\n",
      "\n",
      "*** No instances in image image_0707 to draw *** \n",
      "\n",
      "\n",
      "*** No instances in image image_0723 to draw *** \n",
      "\n",
      "\n",
      "*** No instances in image image_0732 to draw *** \n",
      "\n",
      "\n",
      "*** No instances in image image_0740 to draw *** \n",
      "\n",
      "\n",
      "*** No instances in image image_0743 to draw *** \n",
      "\n",
      "\n",
      "*** No instances in image image_0760 to draw *** \n",
      "\n",
      "\n",
      "*** No instances in image image_0772 to draw *** \n",
      "\n",
      "\n",
      "*** No instances in image image_0775 to draw *** \n",
      "\n",
      "\n",
      "*** No instances in image image_0787 to draw *** \n",
      "\n",
      "\n",
      "*** No instances in image image_0790 to draw *** \n",
      "\n",
      "\n",
      "*** No instances in image image_0794 to draw *** \n",
      "\n",
      "\n",
      "*** No instances in image image_0795 to draw *** \n",
      "\n",
      "\n",
      "*** No instances in image image_0809 to draw *** \n",
      "\n",
      "\n",
      "*** No instances in image image_0813 to draw *** \n",
      "\n",
      "\n",
      "*** No instances in image image_0815 to draw *** \n",
      "\n",
      "\n",
      "*** No instances in image image_0846 to draw *** \n",
      "\n",
      "\n",
      "*** No instances in image image_0854 to draw *** \n",
      "\n",
      "\n",
      "*** No instances in image image_0857 to draw *** \n",
      "\n",
      "\n",
      "*** No instances in image image_0874 to draw *** \n",
      "\n",
      "\n",
      "*** No instances in image image_0884 to draw *** \n",
      "\n",
      "\n",
      "*** No instances in image image_0887 to draw *** \n",
      "\n",
      "\n",
      "*** No instances in image image_0904 to draw *** \n",
      "\n",
      "\n",
      "*** No instances in image image_0929 to draw *** \n",
      "\n",
      "\n",
      "*** No instances in image image_0941 to draw *** \n",
      "\n",
      "\n",
      "*** No instances in image image_0942 to draw *** \n",
      "\n",
      "\n",
      "*** No instances in image image_0946 to draw *** \n",
      "\n",
      "\n",
      "*** No instances in image image_0977 to draw *** \n",
      "\n",
      "\n",
      "*** No instances in image image_0981 to draw *** \n",
      "\n",
      "\n",
      "*** No instances in image image_1015 to draw *** \n",
      "\n",
      "\n",
      "*** No instances in image image_1025 to draw *** \n",
      "\n",
      "\n",
      "*** No instances in image image_1026 to draw *** \n",
      "\n",
      "\n",
      "*** No instances in image image_1027 to draw *** \n",
      "\n",
      "\n",
      "*** No instances in image image_1036 to draw *** \n",
      "\n",
      "\n",
      "*** No instances in image image_1045 to draw *** \n",
      "\n",
      "\n",
      "*** No instances in image image_1054 to draw *** \n",
      "\n",
      "\n",
      "*** No instances in image image_1058 to draw *** \n",
      "\n",
      "\n",
      "*** No instances in image image_1059 to draw *** \n",
      "\n",
      "\n",
      "*** No instances in image image_1071 to draw *** \n",
      "\n",
      "\n",
      "*** No instances in image image_1080 to draw *** \n",
      "\n",
      "\n",
      "*** No instances in image image_1089 to draw *** \n",
      "\n",
      "\n",
      "*** No instances in image image_1092 to draw *** \n",
      "\n",
      "\n",
      "*** No instances in image image_1095 to draw *** \n",
      "\n",
      "\n",
      "*** No instances in image image_1098 to draw *** \n",
      "\n",
      "\n",
      "*** No instances in image image_1120 to draw *** \n",
      "\n",
      "\n",
      "*** No instances in image image_1124 to draw *** \n",
      "\n",
      "\n",
      "*** No instances in image image_1134 to draw *** \n",
      "\n",
      "\n",
      "*** No instances in image image_1145 to draw *** \n",
      "\n",
      "\n",
      "*** No instances in image image_1147 to draw *** \n",
      "\n",
      "\n",
      "*** No instances in image image_1148 to draw *** \n",
      "\n",
      "\n",
      "*** No instances in image image_1168 to draw *** \n",
      "\n",
      "\n",
      "*** No instances in image image_1172 to draw *** \n",
      "\n",
      "\n",
      "*** No instances in image image_1174 to draw *** \n",
      "\n",
      "\n",
      "*** No instances in image image_1176 to draw *** \n",
      "\n",
      "\n",
      "*** No instances in image image_1201 to draw *** \n",
      "\n",
      "\n",
      "*** No instances in image image_1213 to draw *** \n",
      "\n",
      "\n",
      "*** No instances in image image_1230 to draw *** \n",
      "\n",
      "\n",
      "*** No instances in image image_1240 to draw *** \n",
      "\n",
      "\n",
      "*** No instances in image image_1255 to draw *** \n",
      "\n",
      "\n",
      "*** No instances in image image_1259 to draw *** \n",
      "\n",
      "\n",
      "*** No instances in image image_1260 to draw *** \n",
      "\n",
      "\n",
      "*** No instances in image image_1264 to draw *** \n",
      "\n",
      "\n",
      "*** No instances in image image_1266 to draw *** \n",
      "\n",
      "\n",
      "*** No instances in image image_1272 to draw *** \n",
      "\n",
      "\n",
      "*** No instances in image image_1301 to draw *** \n",
      "\n",
      "\n",
      "*** No instances in image image_1315 to draw *** \n",
      "\n",
      "\n",
      "*** No instances in image image_1323 to draw *** \n",
      "\n",
      "\n",
      "*** No instances in image image_1327 to draw *** \n",
      "\n",
      "\n",
      "*** No instances in image image_1346 to draw *** \n",
      "\n",
      "\n",
      "*** No instances in image image_1388 to draw *** \n",
      "\n",
      "\n",
      "*** No instances in image image_1395 to draw *** \n",
      "\n",
      "\n",
      "*** No instances in image image_1411 to draw *** \n",
      "\n",
      "\n",
      "*** No instances in image image_1414 to draw *** \n",
      "\n",
      "\n",
      "*** No instances in image image_1423 to draw *** \n",
      "\n",
      "\n",
      "*** No instances in image image_1437 to draw *** \n",
      "\n",
      "\n",
      "*** No instances in image image_1442 to draw *** \n",
      "\n",
      "\n",
      "*** No instances in image image_1448 to draw *** \n",
      "\n"
     ]
    },
    {
     "name": "stdout",
     "output_type": "stream",
     "text": [
      "\n",
      "*** No instances in image image_1467 to draw *** \n",
      "\n",
      "\n",
      "*** No instances in image image_1476 to draw *** \n",
      "\n",
      "\n",
      "*** No instances in image image_1485 to draw *** \n",
      "\n",
      "\n",
      "*** No instances in image image_1494 to draw *** \n",
      "\n",
      "\n",
      "*** No instances in image image_1504 to draw *** \n",
      "\n",
      "\n",
      "*** No instances in image image_1517 to draw *** \n",
      "\n",
      "\n",
      "*** No instances in image image_1527 to draw *** \n",
      "\n",
      "\n",
      "*** No instances in image image_1535 to draw *** \n",
      "\n",
      "\n",
      "*** No instances in image image_1540 to draw *** \n",
      "\n",
      "\n",
      "*** No instances in image image_1546 to draw *** \n",
      "\n",
      "\n",
      "*** No instances in image image_1548 to draw *** \n",
      "\n",
      "\n",
      "*** No instances in image image_1557 to draw *** \n",
      "\n",
      "\n",
      "*** No instances in image image_1570 to draw *** \n",
      "\n",
      "\n",
      "*** No instances in image image_1580 to draw *** \n",
      "\n",
      "\n",
      "*** No instances in image image_1587 to draw *** \n",
      "\n",
      "\n",
      "*** No instances in image image_1594 to draw *** \n",
      "\n",
      "\n",
      "*** No instances in image image_1603 to draw *** \n",
      "\n",
      "\n",
      "*** No instances in image image_1613 to draw *** \n",
      "\n",
      "\n",
      "*** No instances in image image_1627 to draw *** \n",
      "\n",
      "\n",
      "*** No instances in image image_1634 to draw *** \n",
      "\n",
      "\n",
      "*** No instances in image image_1644 to draw *** \n",
      "\n",
      "\n",
      "*** No instances in image image_1646 to draw *** \n",
      "\n",
      "\n",
      "*** No instances in image image_1650 to draw *** \n",
      "\n",
      "\n",
      "*** No instances in image image_1655 to draw *** \n",
      "\n",
      "\n",
      "*** No instances in image image_1656 to draw *** \n",
      "\n",
      "\n",
      "*** No instances in image image_1659 to draw *** \n",
      "\n",
      "\n",
      "*** No instances in image image_1668 to draw *** \n",
      "\n",
      "\n",
      "*** No instances in image image_1670 to draw *** \n",
      "\n",
      "\n",
      "*** No instances in image image_1688 to draw *** \n",
      "\n",
      "\n",
      "*** No instances in image image_1689 to draw *** \n",
      "\n",
      "\n",
      "*** No instances in image image_1691 to draw *** \n",
      "\n",
      "\n",
      "*** No instances in image image_1701 to draw *** \n",
      "\n",
      "\n",
      "*** No instances in image image_1713 to draw *** \n",
      "\n",
      "\n",
      "*** No instances in image image_1717 to draw *** \n",
      "\n",
      "\n",
      "*** No instances in image image_1722 to draw *** \n",
      "\n",
      "\n",
      "*** No instances in image image_1734 to draw *** \n",
      "\n",
      "\n",
      "*** No instances in image image_1738 to draw *** \n",
      "\n",
      "\n",
      "*** No instances in image image_1739 to draw *** \n",
      "\n",
      "\n",
      "*** No instances in image image_1773 to draw *** \n",
      "\n",
      "\n",
      "*** No instances in image image_1786 to draw *** \n",
      "\n",
      "\n",
      "*** No instances in image image_1787 to draw *** \n",
      "\n",
      "\n",
      "*** No instances in image image_1802 to draw *** \n",
      "\n",
      "\n",
      "*** No instances in image image_1814 to draw *** \n",
      "\n",
      "\n",
      "*** No instances in image image_1815 to draw *** \n",
      "\n",
      "\n",
      "*** No instances in image image_1824 to draw *** \n",
      "\n",
      "\n",
      "*** No instances in image image_1831 to draw *** \n",
      "\n",
      "\n",
      "*** No instances in image image_1837 to draw *** \n",
      "\n",
      "\n",
      "*** No instances in image image_1841 to draw *** \n",
      "\n",
      "\n",
      "*** No instances in image image_1877 to draw *** \n",
      "\n",
      "\n",
      "*** No instances in image image_1889 to draw *** \n",
      "\n",
      "\n",
      "*** No instances in image image_1893 to draw *** \n",
      "\n",
      "\n",
      "*** No instances in image image_1902 to draw *** \n",
      "\n",
      "\n",
      "*** No instances in image image_1904 to draw *** \n",
      "\n",
      "\n",
      "*** No instances in image image_1905 to draw *** \n",
      "\n",
      "\n",
      "*** No instances in image image_1906 to draw *** \n",
      "\n",
      "\n",
      "*** No instances in image image_1913 to draw *** \n",
      "\n",
      "\n",
      "*** No instances in image image_1919 to draw *** \n",
      "\n",
      "\n",
      "*** No instances in image image_1928 to draw *** \n",
      "\n",
      "\n",
      "*** No instances in image image_1931 to draw *** \n",
      "\n",
      "\n",
      "*** No instances in image image_1935 to draw *** \n",
      "\n",
      "\n",
      "*** No instances in image image_1964 to draw *** \n",
      "\n",
      "\n",
      "*** No instances in image image_1967 to draw *** \n",
      "\n",
      "\n",
      "*** No instances in image image_1978 to draw *** \n",
      "\n",
      "\n",
      "*** No instances in image image_1982 to draw *** \n",
      "\n",
      "\n",
      "*** No instances in image image_1986 to draw *** \n",
      "\n",
      "\n",
      "*** No instances in image image_1991 to draw *** \n",
      "\n",
      "\n",
      "*** No instances in image image_2002 to draw *** \n",
      "\n",
      "\n",
      "*** No instances in image image_2007 to draw *** \n",
      "\n",
      "\n",
      "*** No instances in image image_2017 to draw *** \n",
      "\n",
      "\n",
      "*** No instances in image image_2033 to draw *** \n",
      "\n",
      "\n",
      "*** No instances in image image_2034 to draw *** \n",
      "\n",
      "\n",
      "*** No instances in image image_2056 to draw *** \n",
      "\n",
      "\n",
      "*** No instances in image image_2060 to draw *** \n",
      "\n",
      "\n",
      "*** No instances in image image_2061 to draw *** \n",
      "\n",
      "\n",
      "*** No instances in image image_2067 to draw *** \n",
      "\n",
      "\n",
      "*** No instances in image image_2071 to draw *** \n",
      "\n",
      "\n",
      "*** No instances in image image_2073 to draw *** \n",
      "\n",
      "\n",
      "*** No instances in image image_2087 to draw *** \n",
      "\n",
      "\n",
      "*** No instances in image image_2089 to draw *** \n",
      "\n",
      "\n",
      "*** No instances in image image_2101 to draw *** \n",
      "\n",
      "\n",
      "*** No instances in image image_2109 to draw *** \n",
      "\n",
      "\n",
      "*** No instances in image image_2126 to draw *** \n",
      "\n",
      "\n",
      "*** No instances in image image_2132 to draw *** \n",
      "\n",
      "\n",
      "*** No instances in image image_2133 to draw *** \n",
      "\n",
      "\n",
      "*** No instances in image image_2137 to draw *** \n",
      "\n",
      "\n",
      "*** No instances in image image_2144 to draw *** \n",
      "\n",
      "\n",
      "*** No instances in image image_2152 to draw *** \n",
      "\n",
      "\n",
      "*** No instances in image image_2159 to draw *** \n",
      "\n",
      "\n",
      "*** No instances in image image_2165 to draw *** \n",
      "\n",
      "\n",
      "*** No instances in image image_2174 to draw *** \n",
      "\n",
      "\n",
      "*** No instances in image image_2176 to draw *** \n",
      "\n",
      "\n",
      "*** No instances in image image_2178 to draw *** \n",
      "\n",
      "\n",
      "*** No instances in image image_2187 to draw *** \n",
      "\n",
      "\n",
      "*** No instances in image image_2203 to draw *** \n",
      "\n",
      "\n",
      "*** No instances in image image_2207 to draw *** \n",
      "\n",
      "\n",
      "*** No instances in image image_2213 to draw *** \n",
      "\n",
      "\n",
      "*** No instances in image image_2217 to draw *** \n",
      "\n",
      "\n",
      "*** No instances in image image_2218 to draw *** \n",
      "\n",
      "\n",
      "*** No instances in image image_2230 to draw *** \n",
      "\n",
      "\n",
      "*** No instances in image image_2232 to draw *** \n",
      "\n",
      "\n",
      "*** No instances in image image_2236 to draw *** \n",
      "\n",
      "\n",
      "*** No instances in image image_2240 to draw *** \n",
      "\n",
      "\n",
      "*** No instances in image image_2260 to draw *** \n",
      "\n",
      "\n",
      "*** No instances in image image_2266 to draw *** \n",
      "\n",
      "\n",
      "*** No instances in image image_2291 to draw *** \n",
      "\n",
      "\n",
      "*** No instances in image image_2300 to draw *** \n",
      "\n",
      "\n",
      "*** No instances in image image_2301 to draw *** \n",
      "\n",
      "\n",
      "*** No instances in image image_2323 to draw *** \n",
      "\n",
      "\n",
      "*** No instances in image image_2338 to draw *** \n",
      "\n",
      "\n",
      "*** No instances in image image_2344 to draw *** \n",
      "\n",
      "\n",
      "*** No instances in image image_2345 to draw *** \n",
      "\n",
      "\n",
      "*** No instances in image image_2356 to draw *** \n",
      "\n",
      "\n",
      "*** No instances in image image_2366 to draw *** \n",
      "\n",
      "\n",
      "*** No instances in image image_2374 to draw *** \n",
      "\n",
      "\n",
      "*** No instances in image image_2375 to draw *** \n",
      "\n",
      "\n",
      "*** No instances in image image_2376 to draw *** \n",
      "\n",
      "\n",
      "*** No instances in image image_2393 to draw *** \n",
      "\n",
      "\n",
      "*** No instances in image image_2419 to draw *** \n",
      "\n",
      "\n",
      "*** No instances in image image_2422 to draw *** \n",
      "\n",
      "\n",
      "*** No instances in image image_2435 to draw *** \n",
      "\n",
      "\n",
      "*** No instances in image image_2449 to draw *** \n",
      "\n",
      "\n",
      "*** No instances in image image_2457 to draw *** \n",
      "\n",
      "\n",
      "*** No instances in image image_2466 to draw *** \n",
      "\n",
      "\n",
      "*** No instances in image image_2478 to draw *** \n",
      "\n",
      "\n",
      "*** No instances in image image_2480 to draw *** \n",
      "\n",
      "\n",
      "*** No instances in image image_2488 to draw *** \n",
      "\n",
      "\n",
      "*** No instances in image image_2508 to draw *** \n",
      "\n",
      "\n",
      "*** No instances in image image_2510 to draw *** \n",
      "\n",
      "\n",
      "*** No instances in image image_2521 to draw *** \n",
      "\n",
      "\n",
      "*** No instances in image image_2552 to draw *** \n",
      "\n",
      "\n",
      "*** No instances in image image_2566 to draw *** \n",
      "\n",
      "\n",
      "*** No instances in image image_2572 to draw *** \n",
      "\n",
      "\n",
      "*** No instances in image image_2576 to draw *** \n",
      "\n",
      "\n",
      "*** No instances in image image_2589 to draw *** \n",
      "\n",
      "\n",
      "*** No instances in image image_2594 to draw *** \n",
      "\n",
      "\n",
      "*** No instances in image image_2602 to draw *** \n",
      "\n",
      "\n",
      "*** No instances in image image_2604 to draw *** \n",
      "\n",
      "\n",
      "*** No instances in image image_2608 to draw *** \n",
      "\n",
      "\n",
      "*** No instances in image image_2620 to draw *** \n",
      "\n",
      "\n",
      "*** No instances in image image_2621 to draw *** \n",
      "\n",
      "\n",
      "*** No instances in image image_2626 to draw *** \n",
      "\n",
      "\n",
      "*** No instances in image image_2641 to draw *** \n",
      "\n",
      "\n",
      "*** No instances in image image_2653 to draw *** \n",
      "\n",
      "\n",
      "*** No instances in image image_2664 to draw *** \n",
      "\n",
      "\n",
      "*** No instances in image image_2665 to draw *** \n",
      "\n",
      "\n",
      "*** No instances in image image_2671 to draw *** \n",
      "\n",
      "\n",
      "*** No instances in image image_2675 to draw *** \n",
      "\n",
      "\n",
      "*** No instances in image image_2686 to draw *** \n",
      "\n",
      "\n",
      "*** No instances in image image_2687 to draw *** \n",
      "\n",
      "\n",
      "*** No instances in image image_2745 to draw *** \n",
      "\n",
      "\n",
      "*** No instances in image image_2749 to draw *** \n",
      "\n",
      "\n",
      "*** No instances in image image_2757 to draw *** \n",
      "\n",
      "\n",
      "*** No instances in image image_2759 to draw *** \n",
      "\n",
      "\n",
      "*** No instances in image image_2768 to draw *** \n",
      "\n",
      "\n",
      "*** No instances in image image_2776 to draw *** \n",
      "\n",
      "\n",
      "*** No instances in image image_2779 to draw *** \n",
      "\n",
      "\n",
      "*** No instances in image image_2783 to draw *** \n",
      "\n",
      "\n",
      "*** No instances in image image_2801 to draw *** \n",
      "\n"
     ]
    },
    {
     "name": "stdout",
     "output_type": "stream",
     "text": [
      "\n",
      "*** No instances in image image_2810 to draw *** \n",
      "\n",
      "\n",
      "*** No instances in image image_2812 to draw *** \n",
      "\n",
      "\n",
      "*** No instances in image image_2813 to draw *** \n",
      "\n",
      "\n",
      "*** No instances in image image_2825 to draw *** \n",
      "\n",
      "\n",
      "*** No instances in image image_2829 to draw *** \n",
      "\n",
      "\n",
      "*** No instances in image image_2838 to draw *** \n",
      "\n",
      "\n",
      "*** No instances in image image_2841 to draw *** \n",
      "\n",
      "\n",
      "*** No instances in image image_2842 to draw *** \n",
      "\n",
      "\n",
      "*** No instances in image image_2857 to draw *** \n",
      "\n",
      "\n",
      "*** No instances in image image_2861 to draw *** \n",
      "\n",
      "\n",
      "*** No instances in image image_2865 to draw *** \n",
      "\n",
      "\n",
      "*** No instances in image image_2866 to draw *** \n",
      "\n",
      "\n",
      "*** No instances in image image_2886 to draw *** \n",
      "\n",
      "\n",
      "*** No instances in image image_2890 to draw *** \n",
      "\n",
      "\n",
      "*** No instances in image image_2903 to draw *** \n",
      "\n",
      "\n",
      "*** No instances in image image_2904 to draw *** \n",
      "\n",
      "\n",
      "*** No instances in image image_2911 to draw *** \n",
      "\n",
      "\n",
      "*** No instances in image image_2914 to draw *** \n",
      "\n",
      "\n",
      "*** No instances in image image_2923 to draw *** \n",
      "\n",
      "\n",
      "*** No instances in image image_2924 to draw *** \n",
      "\n",
      "\n",
      "*** No instances in image image_2926 to draw *** \n",
      "\n",
      "\n",
      "*** No instances in image image_2942 to draw *** \n",
      "\n",
      "\n",
      "*** No instances in image image_2950 to draw *** \n",
      "\n",
      "\n",
      "*** No instances in image image_2951 to draw *** \n",
      "\n",
      "\n",
      "*** No instances in image image_2955 to draw *** \n",
      "\n",
      "\n",
      "*** No instances in image image_2968 to draw *** \n",
      "\n",
      "\n",
      "*** No instances in image image_2981 to draw *** \n",
      "\n",
      "\n",
      "*** No instances in image image_2990 to draw *** \n",
      "\n",
      "\n",
      "*** No instances in image image_2994 to draw *** \n",
      "\n",
      "\n",
      "*** No instances in image image_3000 to draw *** \n",
      "\n",
      "\n",
      "*** No instances in image image_3008 to draw *** \n",
      "\n",
      "\n",
      "*** No instances in image image_3017 to draw *** \n",
      "\n",
      "\n",
      "*** No instances in image image_3035 to draw *** \n",
      "\n",
      "\n",
      "*** No instances in image image_3044 to draw *** \n",
      "\n",
      "\n",
      "*** No instances in image image_3048 to draw *** \n",
      "\n",
      "\n",
      "*** No instances in image image_3050 to draw *** \n",
      "\n",
      "\n",
      "*** No instances in image image_3054 to draw *** \n",
      "\n",
      "\n",
      "*** No instances in image image_3064 to draw *** \n",
      "\n",
      "\n",
      "*** No instances in image image_3077 to draw *** \n",
      "\n",
      "\n",
      "*** No instances in image image_3079 to draw *** \n",
      "\n",
      "\n",
      "*** No instances in image image_3085 to draw *** \n",
      "\n",
      "\n",
      "*** No instances in image image_3095 to draw *** \n",
      "\n",
      "\n",
      "*** No instances in image image_3108 to draw *** \n",
      "\n",
      "\n",
      "*** No instances in image image_3111 to draw *** \n",
      "\n",
      "\n",
      "*** No instances in image image_3127 to draw *** \n",
      "\n",
      "\n",
      "*** No instances in image image_3135 to draw *** \n",
      "\n",
      "\n",
      "*** No instances in image image_3138 to draw *** \n",
      "\n",
      "\n",
      "*** No instances in image image_3148 to draw *** \n",
      "\n",
      "\n",
      "*** No instances in image image_3171 to draw *** \n",
      "\n",
      "\n",
      "*** No instances in image image_3198 to draw *** \n",
      "\n",
      "\n",
      "*** No instances in image image_3210 to draw *** \n",
      "\n",
      "\n",
      "*** No instances in image image_3214 to draw *** \n",
      "\n",
      "\n",
      "*** No instances in image image_3221 to draw *** \n",
      "\n",
      "\n",
      "*** No instances in image image_3224 to draw *** \n",
      "\n",
      "\n",
      "*** No instances in image image_3229 to draw *** \n",
      "\n",
      "\n",
      "*** No instances in image image_3230 to draw *** \n",
      "\n",
      "\n",
      "*** No instances in image image_3259 to draw *** \n",
      "\n",
      "\n",
      "*** No instances in image image_3262 to draw *** \n",
      "\n",
      "\n",
      "*** No instances in image image_3263 to draw *** \n",
      "\n",
      "\n",
      "*** No instances in image image_3267 to draw *** \n",
      "\n",
      "\n",
      "*** No instances in image image_3275 to draw *** \n",
      "\n",
      "\n",
      "*** No instances in image image_3285 to draw *** \n",
      "\n",
      "\n",
      "*** No instances in image image_3290 to draw *** \n",
      "\n",
      "\n",
      "*** No instances in image image_3293 to draw *** \n",
      "\n",
      "\n",
      "*** No instances in image image_3294 to draw *** \n",
      "\n",
      "\n",
      "*** No instances in image image_3304 to draw *** \n",
      "\n",
      "\n",
      "*** No instances in image image_3316 to draw *** \n",
      "\n",
      "\n",
      "*** No instances in image image_3346 to draw *** \n",
      "\n",
      "\n",
      "*** No instances in image image_3350 to draw *** \n",
      "\n",
      "\n",
      "*** No instances in image image_3355 to draw *** \n",
      "\n",
      "\n",
      "*** No instances in image image_3359 to draw *** \n",
      "\n",
      "\n",
      "*** No instances in image image_3361 to draw *** \n",
      "\n",
      "\n",
      "*** No instances in image image_3370 to draw *** \n",
      "\n",
      "\n",
      "*** No instances in image image_3381 to draw *** \n",
      "\n",
      "\n",
      "*** No instances in image image_3401 to draw *** \n",
      "\n",
      "\n",
      "*** No instances in image image_3411 to draw *** \n",
      "\n",
      "\n",
      "*** No instances in image image_3420 to draw *** \n",
      "\n",
      "\n",
      "*** No instances in image image_3433 to draw *** \n",
      "\n",
      "\n",
      "*** No instances in image image_3435 to draw *** \n",
      "\n",
      "\n",
      "*** No instances in image image_3437 to draw *** \n",
      "\n",
      "\n",
      "*** No instances in image image_3447 to draw *** \n",
      "\n",
      "\n",
      "*** No instances in image image_3455 to draw *** \n",
      "\n",
      "\n",
      "*** No instances in image image_3476 to draw *** \n",
      "\n",
      "\n",
      "*** No instances in image image_3485 to draw *** \n",
      "\n",
      "\n",
      "*** No instances in image image_3488 to draw *** \n",
      "\n",
      "\n",
      "*** No instances in image image_3489 to draw *** \n",
      "\n",
      "\n",
      "*** No instances in image image_3497 to draw *** \n",
      "\n",
      "\n",
      "*** No instances in image image_3500 to draw *** \n",
      "\n",
      "\n",
      "*** No instances in image image_3513 to draw *** \n",
      "\n",
      "\n",
      "*** No instances in image image_3524 to draw *** \n",
      "\n",
      "\n",
      "*** No instances in image image_3531 to draw *** \n",
      "\n",
      "\n",
      "*** No instances in image image_3540 to draw *** \n",
      "\n",
      "\n",
      "*** No instances in image image_3549 to draw *** \n",
      "\n",
      "\n",
      "*** No instances in image image_3560 to draw *** \n",
      "\n",
      "\n",
      "*** No instances in image image_3574 to draw *** \n",
      "\n",
      "\n",
      "*** No instances in image image_3575 to draw *** \n",
      "\n",
      "\n",
      "*** No instances in image image_3588 to draw *** \n",
      "\n",
      "\n",
      "*** No instances in image image_3592 to draw *** \n",
      "\n",
      "\n",
      "*** No instances in image image_3593 to draw *** \n",
      "\n",
      "\n",
      "*** No instances in image image_3603 to draw *** \n",
      "\n",
      "\n",
      "*** No instances in image image_3624 to draw *** \n",
      "\n",
      "\n",
      "*** No instances in image image_3631 to draw *** \n",
      "\n",
      "\n",
      "*** No instances in image image_3636 to draw *** \n",
      "\n",
      "\n",
      "*** No instances in image image_3663 to draw *** \n",
      "\n",
      "\n",
      "*** No instances in image image_3673 to draw *** \n",
      "\n",
      "\n",
      "*** No instances in image image_3674 to draw *** \n",
      "\n",
      "\n",
      "*** No instances in image image_3688 to draw *** \n",
      "\n"
     ]
    }
   ],
   "source": [
    "count = 0\n",
    "for filename in glob.glob('img/*.jpg'): #assuming gif\n",
    "    image = skimage.io.imread(filename)\n",
    "    results = model.detect([image], verbose=0)\n",
    "    r = results[0]\n",
    "    count += 1\n",
    "    image_name = 'image_'+str(count).zfill(4)\n",
    "    save_image(image, image_name, r['rois'], r['masks'],r['class_ids'],r['scores'],class_names,save_dir='output',mode=0)\n",
    "    \n",
    "    \n",
    "    "
   ]
  },
  {
   "cell_type": "code",
   "execution_count": 41,
   "metadata": {},
   "outputs": [
    {
     "name": "stdout",
     "output_type": "stream",
     "text": [
      "ffmpeg version 3.4.4-0ubuntu0.18.04.1 Copyright (c) 2000-2018 the FFmpeg developers\n",
      "  built with gcc 7 (Ubuntu 7.3.0-16ubuntu3)\n",
      "  configuration: --prefix=/usr --extra-version=0ubuntu0.18.04.1 --toolchain=hardened --libdir=/usr/lib/x86_64-linux-gnu --incdir=/usr/include/x86_64-linux-gnu --enable-gpl --disable-stripping --enable-avresample --enable-avisynth --enable-gnutls --enable-ladspa --enable-libass --enable-libbluray --enable-libbs2b --enable-libcaca --enable-libcdio --enable-libflite --enable-libfontconfig --enable-libfreetype --enable-libfribidi --enable-libgme --enable-libgsm --enable-libmp3lame --enable-libmysofa --enable-libopenjpeg --enable-libopenmpt --enable-libopus --enable-libpulse --enable-librubberband --enable-librsvg --enable-libshine --enable-libsnappy --enable-libsoxr --enable-libspeex --enable-libssh --enable-libtheora --enable-libtwolame --enable-libvorbis --enable-libvpx --enable-libwavpack --enable-libwebp --enable-libx265 --enable-libxml2 --enable-libxvid --enable-libzmq --enable-libzvbi --enable-omx --enable-openal --enable-opengl --enable-sdl2 --enable-libdc1394 --enable-libdrm --enable-libiec61883 --enable-chromaprint --enable-frei0r --enable-libopencv --enable-libx264 --enable-shared\n",
      "  libavutil      55. 78.100 / 55. 78.100\n",
      "  libavcodec     57.107.100 / 57.107.100\n",
      "  libavformat    57. 83.100 / 57. 83.100\n",
      "  libavdevice    57. 10.100 / 57. 10.100\n",
      "  libavfilter     6.107.100 /  6.107.100\n",
      "  libavresample   3.  7.  0 /  3.  7.  0\n",
      "  libswscale      4.  8.100 /  4.  8.100\n",
      "  libswresample   2.  9.100 /  2.  9.100\n",
      "  libpostproc    54.  7.100 / 54.  7.100\n",
      "Input #0, image2, from 'output/*.jpg':\n",
      "  Duration: 00:54:40.00, start: 0.000000, bitrate: N/A\n",
      "    Stream #0:0: Video: mjpeg, yuvj420p(pc, bt470bg/unknown/unknown), 1280x720 [SAR 1:1 DAR 16:9], 1 fps, 1 tbr, 1 tbn, 1 tbc\n",
      "File 'video_masked.mp4' already exists. Overwrite ? [y/N] ^C\n"
     ]
    }
   ],
   "source": [
    "!ffmpeg -framerate 30 -i output/image_%04d.jpg video_masked.mp4"
   ]
  },
  {
   "cell_type": "code",
   "execution_count": null,
   "metadata": {},
   "outputs": [],
   "source": []
  }
 ],
 "metadata": {
  "kernelspec": {
   "display_name": "Python (py36)",
   "language": "python",
   "name": "py36"
  },
  "language_info": {
   "codemirror_mode": {
    "name": "ipython",
    "version": 3
   },
   "file_extension": ".py",
   "mimetype": "text/x-python",
   "name": "python",
   "nbconvert_exporter": "python",
   "pygments_lexer": "ipython3",
   "version": "3.6.8"
  }
 },
 "nbformat": 4,
 "nbformat_minor": 2
}
